<svg width="400" height="400" viewBox="0 0 400 400" xmlns="http://www.w3.org/2000/svg" role="img">
<title>Icono de gerbera rojo-naranja - Ester</title>
<defs>
<linearGradient id="petalG" x1="0%" y1="0%" x2="100%" y2="100%">
<stop offset="0%" stop-color="#ff5a2e"/>
<stop offset="55%" stop-color="#ec3a12"/>
<stop offset="100%" stop-color="#c4230a"/>
</linearGradient>
<radialGradient id="goldRing" cx="50%" cy="45%" r="60%">
<stop offset="0%" stop-color="#ffd45c"/>
<stop offset="100%" stop-color="#e6a326"/>
</radialGradient>
<radialGradient id="darkCore" cx="40%" cy="35%" r="70%">
<stop offset="0%" stop-color="#7a2818"/>
<stop offset="100%" stop-color="#4a1610"/>
</radialGradient>
</defs>
<circle cx="200" cy="200" r="185" fill="#ffffff"/>
<g>
<g transform="rotate(0 200 200)"><ellipse cx="200" cy="125" rx="38" ry="85" fill="url(#petalG)"/></g>
<g transform="rotate(45 200 200)"><ellipse cx="200" cy="125" rx="38" ry="85" fill="url(#petalG)"/></g>
<g transform="rotate(90 200 200)"><ellipse cx="200" cy="125" rx="38" ry="85" fill="url(#petalG)"/></g>
<g transform="rotate(135 200 200)"><ellipse cx="200" cy="125" rx="38" ry="85" fill="url(#petalG)"/></g>
<g transform="rotate(180 200 200)"><ellipse cx="200" cy="125" rx="38" ry="85" fill="url(#petalG)"/></g>
<g transform="rotate(225 200 200)"><ellipse cx="200" cy="125" rx="38" ry="85" fill="url(#petalG)"/></g>
<g transform="rotate(270 200 200)"><ellipse cx="200" cy="125" rx="38" ry="85" fill="url(#petalG)"/></g>
<g transform="rotate(315 200 200)"><ellipse cx="200" cy="125" rx="38" ry="85" fill="url(#petalG)"/></g>
</g>
<circle cx="200" cy="200" r="48" fill="url(#goldRing)"/>
<circle cx="200" cy="200" r="34" fill="url(#darkCore)"/>
<g fill="#a9761c" opacity="0.55">
<circle cx="220.0" cy="200.0" r="1.71"/>
<circle cx="183.5" cy="215.1" r="1.8"/>
<circle cx="202.0" cy="176.7" r="2.13"/>
<circle cx="214.7" cy="219.2" r="1.72"/>
<circle cx="175.5" cy="195.7" r="1.76"/>
<circle cx="221.5" cy="186.4" r="1.83"/>
<circle cx="193.3" cy="225.1" r="1.47"/>
<circle cx="187.8" cy="176.6" r="1.76"/>
<circle cx="225.2" cy="209.2" r="1.87"/>
<circle cx="174.8" cy="210.4" r="2.01"/>
<circle cx="211.7" cy="174.9" r="1.38"/>
<circle cx="208.4" cy="226.8" r="1.57"/>
<circle cx="175.4" cy="185.8" r="1.38"/>
<circle cx="228.1" cy="193.8" r="2.03"/>
<circle cx="183.3" cy="223.8" r="1.92"/>
<circle cx="222.7" cy="219.1" r="2.18"/>
<circle cx="221.5" cy="178.6" r="1.89"/>
<circle cx="230.8" cy="204.2" r="1.31"/>
<circle cx="229.4" cy="186.4" r="1.33"/>
<circle cx="229.3" cy="215.4" r="2.06"/>
<circle cx="218.1" cy="171.8" r="1.88"/>
<circle cx="234.0" cy="197.2" r="1.71"/>
<circle cx="223.4" cy="225.7" r="2.2"/>
<circle cx="228.0" cy="178.7" r="1.94"/>
<circle cx="234.5" cy="209.4" r="1.56"/>
<circle cx="212.5" cy="166.2" r="1.99"/>
<circle cx="235.0" cy="189.2" r="1.65"/>
<circle cx="230.3" cy="221.5" r="1.3"/>
<circle cx="224.3" cy="171.4" r="2.12"/>
</g>
<g fill="#2a1008" opacity="0.6">
<circle cx="200.0" cy="200.0" r="1.66"/>
<circle cx="197.4" cy="202.4" r="1.37"/>
<circle cx="200.4" cy="195.0" r="1.87"/>
<circle cx="203.8" cy="204.9" r="2.0"/>
<circle cx="193.0" cy="198.8" r="1.54"/>
<circle cx="206.8" cy="195.7" r="1.38"/>
<circle cx="197.7" cy="208.5" r="1.6"/>
<circle cx="195.6" cy="191.6" r="2.17"/>
<circle cx="209.5" cy="203.5" r="1.98"/>
<circle cx="190.1" cy="204.1" r="1.41"/>
<circle cx="204.8" cy="189.8" r="1.52"/>
<circle cx="203.6" cy="211.3" r="1.39"/>
<circle cx="189.3" cy="193.8" r="1.35"/>
<circle cx="212.6" cy="197.2" r="2.02"/>
<circle cx="192.3" cy="211.0" r="1.46"/>
<circle cx="198.2" cy="186.3" r="1.8"/>
<circle cx="210.9" cy="209.2" r="1.7"/>
<circle cx="185.3" cy="200.6" r="1.47"/>
<circle cx="210.8" cy="189.3" r="1.96"/>
<circle cx="199.3" cy="215.6" r="1.42"/>
</g>
</svg>
